<svg width="123" height="32" viewBox="0 0 123 32" fill="none" xmlns="http://www.w3.org/2000/svg">
<path d="M10.1957 29.0264L7.32031 24.019L11.54 16.6904L14.2215 21.3606L30.0507 21.352L25.5591 29.0956L10.1957 29.0264Z" fill="#currentColor"/>
<path d="M32.8775 16.3795L30.0022 21.3869L21.5801 21.3769L24.2618 16.7069L16.3398 2.92773L25.2553 2.96707L32.8775 16.3795Z" fill="#currentColor"/>
<path d="M10.6397 2.90137H16.3904L20.5928 10.2401L15.2295 10.2398L7.32233 24.0275L2.89844 16.2447L10.6397 2.90137Z" fill="#currentColor"/>
<path fill-rule="evenodd" clip-rule="evenodd" d="M17.0902 1.74183L17.073 1.71191H9.95902L1.53125 16.2385L7.31647 26.4163L7.32357 26.4039L9.51062 30.2127L26.2365 30.288L32.1102 20.1615H32.0712L34.241 16.3827L25.9429 1.78087L17.0902 1.74183ZM22.5933 11.4293H22.6376L18.4558 4.12663L24.5665 4.15358L31.5127 16.3766L29.3385 20.1631L23.6408 20.1661L25.6274 16.7066L22.5933 11.4293ZM15.6415 4.09063L18.4929 9.05044L14.5449 9.05035L7.78579 20.836L7.32474 21.6368L4.26313 16.2506L11.3179 4.09063H15.6415ZM12.8999 16.6805L15.9116 11.4291L19.8606 11.4293L22.8951 16.7073L20.9081 20.1676L14.904 20.1709L12.8999 16.6805ZM8.68861 24.0237L9.83437 22.0259L11.5382 19.0667L13.5384 22.5503L19.5416 22.5471L19.5319 22.5639L27.9721 22.574L24.881 27.9031L10.88 27.8401L8.68861 24.0237Z" fill="currentColor"/>
<path d="M77.329 10.4165C78.1391 10.4165 78.7973 9.75462 78.7973 8.92315C78.7973 8.09162 78.1391 7.44678 77.329 7.44678C76.502 7.44678 75.8438 8.09162 75.8438 8.92315C75.8438 9.75462 76.502 10.4165 77.329 10.4165ZM76.0125 20.2249H78.6285V11.7401H76.0125V20.2249Z" fill="currentColor"/>
<path d="M80.1523 24.2979H82.7178V19.3767C83.2072 20.0215 84.3211 20.4627 85.4857 20.4627C88.0004 20.4627 89.5195 18.5282 89.4523 15.847C89.3842 13.1148 87.8147 11.4688 85.4688 11.4688C84.2705 11.4688 83.1397 11.9948 82.6671 12.7754L82.5321 11.7403H80.1523V24.2979ZM82.7684 15.9827C82.7684 14.71 83.6123 13.8616 84.8274 13.8616C86.0595 13.8616 86.8359 14.727 86.8359 15.9827C86.8359 17.2384 86.0595 18.104 84.8274 18.104C83.6123 18.104 82.7684 17.2554 82.7684 15.9827Z" fill="currentColor"/>
<path d="M89.7285 17.5439C89.7957 19.2579 91.1465 20.4457 93.2727 20.4457C95.3149 20.4457 96.7329 19.3597 96.7329 17.6118C96.7329 16.356 95.9903 15.5246 94.6059 15.1851L93.1038 14.8118C92.5637 14.676 92.226 14.5403 92.226 14.0991C92.226 13.6579 92.5805 13.3694 93.1038 13.3694C93.6944 13.3694 94.0825 13.7597 94.0657 14.3367H96.412C96.3448 12.5718 95.0108 11.4688 93.1542 11.4688C91.2809 11.4688 89.8806 12.5888 89.8806 14.2857C89.8806 15.4227 90.5047 16.356 92.1756 16.7973L93.6608 17.1876C94.0993 17.3063 94.2849 17.51 94.2849 17.7984C94.2849 18.2227 93.8968 18.4943 93.2391 18.4943C92.4797 18.4943 92.0748 18.1379 92.0748 17.5439H89.7285Z" fill="currentColor"/>
<path d="M100.711 20.4457C101.74 20.4457 102.77 19.9705 103.293 19.2748L103.462 20.225H105.909V11.7402H103.31V16.1523C103.31 17.425 102.939 18.1209 101.74 18.1209C100.812 18.1209 100.205 17.6966 100.205 16.1184V11.7402H97.6055V17.0687C97.6055 19.0881 98.7194 20.4457 100.711 20.4457Z" fill="currentColor"/>
<path d="M110.032 20.225V15.5923C110.032 14.1669 110.791 13.7596 111.534 13.7596C112.361 13.7596 112.902 14.2686 112.902 15.3208V20.225H115.466V15.5923C115.466 14.1499 116.209 13.7426 116.951 13.7426C117.779 13.7426 118.336 14.2517 118.336 15.3208V20.225H120.867V14.6759C120.867 12.7413 119.855 11.4517 117.677 11.4517C116.463 11.4517 115.466 12.0456 115.028 12.962C114.521 12.0456 113.644 11.4517 112.243 11.4517C111.315 11.4517 110.454 11.8759 109.948 12.5547L109.846 11.7402H107.416V20.225H110.032Z" fill="currentColor"/>
<path d="M41.682 7.66895H38.9141V20.2266H46.5765V17.7659H41.682V7.66895Z" fill="currentColor"/>
<path d="M46.8418 15.9669C46.8418 18.6481 48.6309 20.4299 51.3312 20.4299C54.0148 20.4299 55.8038 18.6481 55.8038 15.9669C55.8038 13.2857 54.0148 11.4868 51.3312 11.4868C48.6309 11.4868 46.8418 13.2857 46.8418 15.9669ZM49.4578 15.9499C49.4578 14.6771 50.2004 13.8287 51.3312 13.8287C52.4451 13.8287 53.1877 14.6771 53.1877 15.9499C53.1877 17.2396 52.4451 18.0881 51.3312 18.0881C50.2004 18.0881 49.4578 17.2396 49.4578 15.9499Z" fill="currentColor"/>
<path d="M56.2212 15.8313C56.2212 18.3937 57.8753 20.1246 60.2212 20.1246C61.352 20.1246 62.3309 19.7174 62.8203 19.0555V20.2265C62.8203 21.3974 62.0946 22.1779 60.8119 22.1779C59.6642 22.1779 58.871 21.6349 58.8203 20.6676H56.1875C56.4237 22.9925 58.2128 24.5537 60.66 24.5537C63.546 24.5537 65.3688 22.6701 65.3688 19.6834V11.7416H63.0229L62.8879 12.6071C62.4152 11.9113 61.4195 11.4531 60.2718 11.4531C57.9089 11.4531 56.2212 13.2349 56.2212 15.8313ZM58.8541 15.7634C58.8541 14.5416 59.6642 13.7271 60.6937 13.7271C61.8921 13.7271 62.7697 14.5246 62.7697 15.7634C62.7697 17.0022 61.9089 17.8506 60.7106 17.8506C59.6811 17.8506 58.8541 17.0022 58.8541 15.7634Z" fill="currentColor"/>
<path d="M66.127 15.9669C66.127 18.6481 67.9159 20.4299 70.6164 20.4299C73.2998 20.4299 75.0889 18.6481 75.0889 15.9669C75.0889 13.2857 73.2998 11.4868 70.6164 11.4868C67.9159 11.4868 66.127 13.2857 66.127 15.9669ZM68.743 15.9499C68.743 14.6771 69.4856 13.8287 70.6164 13.8287C71.7303 13.8287 72.4729 14.6771 72.4729 15.9499C72.4729 17.2396 71.7303 18.0881 70.6164 18.0881C69.4856 18.0881 68.743 17.2396 68.743 15.9499Z" fill="currentColor"/>
</svg>
