<svg width="155" height="30" viewBox="0 0 155 30" fill="none" xmlns="http://www.w3.org/2000/svg">
<g clip-path="url(#clip0_1309_26111)">
<path d="M10.4469 24.468C7.46073 27.4542 2.40329 27.4423 0.990883 23.4624C0.714354 22.6832 0.493259 21.882 0.330644 21.0645C-0.333309 17.7265 0.00745571 14.2667 1.30985 11.1224C2.61224 7.9782 4.81776 5.29076 7.64751 3.39998C10.4773 1.5092 13.8042 0.5 17.2075 0.5C20.6108 0.5 23.9377 1.5092 26.7674 3.39998C29.5972 5.29076 31.8027 7.9782 33.1051 11.1225C34.4075 14.2667 34.7482 17.7265 34.0843 21.0645C33.9217 21.882 33.7006 22.6832 33.424 23.4624C32.0116 27.4423 26.9542 27.4542 23.968 24.468L19.3584 19.8584C18.918 19.418 18.9635 18.6917 19.085 18.0809C19.1588 17.7096 19.1209 17.3247 18.976 16.9749C18.8311 16.6251 18.5858 16.3261 18.271 16.1158C17.9562 15.9055 17.5861 15.7932 17.2075 15.7932C16.8289 15.7932 16.4588 15.9055 16.144 16.1158C15.8291 16.3261 15.5838 16.6251 15.4389 16.9749C15.294 17.3247 15.2561 17.7096 15.33 18.0809C15.4515 18.6917 15.4969 19.418 15.0565 19.8584L10.4469 24.468Z" fill="currentColor"/>
<path d="M48.4138 20.3368H53.0391V23.0625H44.8828V8.56689H48.4138V20.3368Z" fill="currentColor"/>
<path d="M59.3492 23.2275C58.2204 23.2275 57.2017 22.9866 56.2931 22.5048C55.3984 22.023 54.6894 21.3347 54.1663 20.4399C53.657 19.5451 53.4023 18.4989 53.4023 17.3012C53.4023 16.1174 53.6638 15.078 54.1869 14.1832C54.7101 13.2747 55.4259 12.5795 56.3344 12.0977C57.243 11.6159 58.2617 11.375 59.3905 11.375C60.5193 11.375 61.538 11.6159 62.4465 12.0977C63.3551 12.5795 64.0709 13.2747 64.594 14.1832C65.1171 15.078 65.3787 16.1174 65.3787 17.3012C65.3787 18.4851 65.1102 19.5313 64.5734 20.4399C64.0503 21.3347 63.3276 22.023 62.4052 22.5048C61.4967 22.9866 60.478 23.2275 59.3492 23.2275ZM59.3492 20.1714C60.0237 20.1714 60.595 19.9237 61.0631 19.4281C61.5449 18.9325 61.7858 18.2236 61.7858 17.3012C61.7858 16.3789 61.5517 15.67 61.0837 15.1744C60.6294 14.6788 60.065 14.431 59.3905 14.431C58.7022 14.431 58.1309 14.6788 57.6766 15.1744C57.2223 15.6562 56.9952 16.3651 56.9952 17.3012C56.9952 18.2236 57.2155 18.9325 57.656 19.4281C58.1103 19.9237 58.6747 20.1714 59.3492 20.1714Z" fill="currentColor"/>
<path d="M71.0093 11.375C71.8215 11.375 72.5305 11.5402 73.1362 11.8706C73.7556 12.2009 74.2306 12.6346 74.561 13.1714V11.5402H78.0919V23.0416C78.0919 24.1016 77.8786 25.0584 77.4518 25.9118C77.0388 26.7791 76.3987 27.4674 75.5315 27.9767C74.678 28.4861 73.6111 28.7408 72.3309 28.7408C70.6239 28.7408 69.2404 28.3347 68.1804 27.5225C67.1205 26.724 66.5147 25.6365 66.3633 24.2599H69.853C69.9631 24.7004 70.2247 25.0446 70.6377 25.2924C71.0506 25.5539 71.56 25.6847 72.1657 25.6847C72.8953 25.6847 73.4734 25.4713 73.9002 25.0446C74.3407 24.6316 74.561 23.964 74.561 23.0416V21.4104C74.2168 21.9472 73.7419 22.3878 73.1362 22.7319C72.5305 23.0623 71.8215 23.2275 71.0093 23.2275C70.0595 23.2275 69.1991 22.9866 68.4282 22.5048C67.6573 22.0092 67.0447 21.314 66.5905 20.4192C66.15 19.5107 65.9297 18.4645 65.9297 17.2806C65.9297 16.0967 66.15 15.0574 66.5905 14.1626C67.0447 13.2678 67.6573 12.5795 68.4282 12.0977C69.1991 11.6159 70.0595 11.375 71.0093 11.375ZM74.561 17.3012C74.561 16.4202 74.3132 15.725 73.8176 15.2157C73.3358 14.7064 72.7438 14.4517 72.0418 14.4517C71.3397 14.4517 70.7409 14.7064 70.2453 15.2157C69.7635 15.7113 69.5226 16.3996 69.5226 17.2806C69.5226 18.1616 69.7635 18.8637 70.2453 19.3868C70.7409 19.8961 71.3397 20.1508 72.0418 20.1508C72.7438 20.1508 73.3358 19.8961 73.8176 19.3868C74.3132 18.8774 74.561 18.1823 74.561 17.3012Z" fill="currentColor"/>
<path d="M85.2731 23.2275C84.1443 23.2275 83.1256 22.9866 82.2171 22.5048C81.3223 22.023 80.6133 21.3347 80.0902 20.4399C79.5809 19.5451 79.3262 18.4989 79.3262 17.3012C79.3262 16.1174 79.5877 15.078 80.1109 14.1832C80.634 13.2747 81.3498 12.5795 82.2583 12.0977C83.1669 11.6159 84.1856 11.375 85.3144 11.375C86.4432 11.375 87.4619 11.6159 88.3704 12.0977C89.279 12.5795 89.9948 13.2747 90.5179 14.1832C91.041 15.078 91.3026 16.1174 91.3026 17.3012C91.3026 18.4851 91.0342 19.5313 90.4973 20.4399C89.9742 21.3347 89.2515 22.023 88.3291 22.5048C87.4206 22.9866 86.4019 23.2275 85.2731 23.2275ZM85.2731 20.1714C85.9476 20.1714 86.5189 19.9237 86.987 19.4281C87.4688 18.9325 87.7097 18.2236 87.7097 17.3012C87.7097 16.3789 87.4756 15.67 87.0076 15.1744C86.5533 14.6788 85.9889 14.431 85.3144 14.431C84.6261 14.431 84.0548 14.6788 83.6005 15.1744C83.1463 15.6562 82.9191 16.3651 82.9191 17.3012C82.9191 18.2236 83.1394 18.9325 83.5799 19.4281C84.0342 19.9237 84.5986 20.1714 85.2731 20.1714Z" fill="currentColor"/>
<path d="M94.3328 10.3425C93.7133 10.3425 93.204 10.1636 92.8048 9.80565C92.4193 9.43397 92.2266 8.97969 92.2266 8.44282C92.2266 7.89218 92.4193 7.4379 92.8048 7.07998C93.204 6.7083 93.7133 6.52246 94.3328 6.52246C94.9385 6.52246 95.4341 6.7083 95.8195 7.07998C96.2187 7.4379 96.4183 7.89218 96.4183 8.44282C96.4183 8.97969 96.2187 9.43397 95.8195 9.80565C95.4341 10.1636 94.9385 10.3425 94.3328 10.3425ZM96.0879 11.5402V23.0623H92.557V11.5402H96.0879Z" fill="currentColor"/>
<path d="M101.556 13.1714C101.9 12.6346 102.375 12.2009 102.981 11.8706C103.587 11.5402 104.296 11.375 105.108 11.375C106.058 11.375 106.918 11.6159 107.689 12.0977C108.46 12.5795 109.066 13.2678 109.506 14.1626C109.96 15.0574 110.188 16.0967 110.188 17.2806C110.188 18.4645 109.96 19.5107 109.506 20.4192C109.066 21.314 108.46 22.0092 107.689 22.5048C106.918 22.9866 106.058 23.2275 105.108 23.2275C104.309 23.2275 103.601 23.0623 102.981 22.7319C102.375 22.4015 101.9 21.9748 101.556 21.4517V28.5549H98.0254V11.5402H101.556V13.1714ZM106.595 17.2806C106.595 16.3996 106.347 15.7113 105.851 15.2157C105.369 14.7064 104.771 14.4517 104.055 14.4517C103.353 14.4517 102.754 14.7064 102.258 15.2157C101.777 15.725 101.536 16.4202 101.536 17.3012C101.536 18.1823 101.777 18.8774 102.258 19.3868C102.754 19.8961 103.353 20.1508 104.055 20.1508C104.757 20.1508 105.356 19.8961 105.851 19.3868C106.347 18.8637 106.595 18.1616 106.595 17.2806Z" fill="currentColor"/>
<path d="M116.11 23.2275C115.105 23.2275 114.21 23.0554 113.425 22.7113C112.641 22.3671 112.021 21.8991 111.567 21.3071C111.113 20.7014 110.858 20.0269 110.803 19.2835H114.293C114.334 19.6827 114.52 20.0062 114.85 20.254C115.181 20.5018 115.587 20.6257 116.069 20.6257C116.509 20.6257 116.846 20.5431 117.08 20.3779C117.328 20.199 117.452 19.9718 117.452 19.6965C117.452 19.3661 117.28 19.1252 116.936 18.9738C116.592 18.8086 116.034 18.6297 115.263 18.4369C114.437 18.2442 113.749 18.0446 113.198 17.8381C112.648 17.6179 112.173 17.2806 111.774 16.8263C111.374 16.3583 111.175 15.7319 111.175 14.9473C111.175 14.2865 111.354 13.6877 111.712 13.1508C112.083 12.6002 112.62 12.1665 113.322 11.8499C114.038 11.5333 114.885 11.375 115.862 11.375C117.307 11.375 118.443 11.7329 119.269 12.4487C120.109 13.1646 120.591 14.1144 120.715 15.2983H117.452C117.397 14.8991 117.218 14.5825 116.915 14.3484C116.626 14.1144 116.241 13.9974 115.759 13.9974C115.346 13.9974 115.029 14.08 114.809 14.2452C114.589 14.3966 114.479 14.61 114.479 14.8853C114.479 15.2157 114.651 15.4635 114.995 15.6287C115.353 15.7939 115.903 15.9591 116.647 16.1242C117.5 16.3445 118.195 16.5648 118.732 16.785C119.269 16.9915 119.737 17.3356 120.136 17.8175C120.549 18.2855 120.763 18.9187 120.777 19.7172C120.777 20.3917 120.584 20.9974 120.198 21.5343C119.827 22.0574 119.283 22.4704 118.567 22.7732C117.865 23.0761 117.046 23.2275 116.11 23.2275Z" fill="currentColor"/>
<path d="M133.694 11.5405V23.0626H130.163V21.4933C129.805 22.0026 129.316 22.4156 128.697 22.7322C128.091 23.0351 127.417 23.1865 126.673 23.1865C125.792 23.1865 125.014 22.9938 124.34 22.6083C123.665 22.2091 123.142 21.6378 122.771 20.8945C122.399 20.1511 122.213 19.277 122.213 18.272V11.5405H125.723V17.7971C125.723 18.568 125.923 19.1668 126.322 19.5936C126.721 20.0203 127.258 20.2337 127.933 20.2337C128.621 20.2337 129.165 20.0203 129.564 19.5936C129.963 19.1668 130.163 18.568 130.163 17.7971V11.5405H133.694Z" fill="currentColor"/>
<path d="M150.313 11.4165C151.744 11.4165 152.88 11.8501 153.72 12.7174C154.573 13.5846 155 14.7891 155 16.3309V23.0625H151.49V16.8059C151.49 16.0625 151.29 15.4912 150.891 15.092C150.505 14.679 149.969 14.4725 149.28 14.4725C148.592 14.4725 148.048 14.679 147.649 15.092C147.264 15.4912 147.071 16.0625 147.071 16.8059V23.0625H143.56V16.8059C143.56 16.0625 143.361 15.4912 142.962 15.092C142.576 14.679 142.039 14.4725 141.351 14.4725C140.663 14.4725 140.119 14.679 139.72 15.092C139.334 15.4912 139.142 16.0625 139.142 16.8059V23.0625H135.611V11.5404H139.142V12.9858C139.5 12.504 139.968 12.1254 140.546 11.8501C141.124 11.561 141.778 11.4165 142.507 11.4165C143.375 11.4165 144.146 11.6023 144.82 11.974C145.508 12.3457 146.045 12.8757 146.431 13.564C146.83 12.9307 147.374 12.4145 148.062 12.0153C148.75 11.6161 149.501 11.4165 150.313 11.4165Z" fill="currentColor"/>
</g>
<defs>
<clipPath id="clip0_1309_26111">
<rect width="155" height="29" fill="currentColor" transform="translate(0 0.5)"/>
</clipPath>
</defs>
</svg>
