<svg width="119" height="32" viewBox="0 0 119 32" fill="none" xmlns="http://www.w3.org/2000/svg">
<path d="M40.1211 21.091H42.7002V9.04736H40.1211V21.091Z" fill="currentColor"/>
<path d="M47.9913 21.3584C50.6884 21.3584 52.4584 19.6355 52.4584 16.5911C52.4584 13.6471 50.739 11.8071 47.9913 11.8071C45.2942 11.8071 43.541 13.53 43.541 16.5911C43.541 19.5519 45.2436 21.3584 47.9913 21.3584ZM47.9913 19.2842C46.8282 19.2842 46.1876 18.3308 46.1876 16.5911C46.1876 14.8348 46.8113 13.8813 47.9913 13.8813C49.1713 13.8813 49.8119 14.8515 49.8119 16.5911C49.8119 18.3475 49.1882 19.2842 47.9913 19.2842Z" fill="currentColor"/>
<path d="M56.6551 21.1075C57.6328 21.1075 58.442 20.706 59.0151 19.9199V21.4253C59.0151 22.6799 58.3914 23.098 57.4643 23.098C56.5708 23.098 55.8797 22.6631 55.7785 21.8602H53.1994C53.5197 24.0515 55.1885 25.0551 57.498 25.0551C59.8748 25.0551 61.5943 23.8006 61.5943 21.3919V12.0915H59.0151V12.9279C58.4588 12.1919 57.6665 11.8071 56.6551 11.8071C54.3963 11.8071 52.9297 13.4799 52.9297 16.474C52.9297 19.3344 54.3625 21.1075 56.6551 21.1075ZM57.2788 19.0333C56.1663 19.0333 55.5763 18.1133 55.5763 16.474C55.5763 14.7846 56.1663 13.8813 57.2788 13.8813C58.4083 13.8813 59.0151 14.8013 59.0151 16.4573C59.0151 18.13 58.4251 19.0333 57.2788 19.0333Z" fill="currentColor"/>
<path d="M66.8995 21.3584C69.5966 21.3584 71.3666 19.6355 71.3666 16.5911C71.3666 13.6471 69.6472 11.8071 66.8995 11.8071C64.2024 11.8071 62.4492 13.53 62.4492 16.5911C62.4492 19.5519 64.1518 21.3584 66.8995 21.3584ZM66.8995 19.2842C65.7364 19.2842 65.0958 18.3308 65.0958 16.5911C65.0958 14.8348 65.7195 13.8813 66.8995 13.8813C68.0795 13.8813 68.7201 14.8515 68.7201 16.5911C68.7201 18.3475 68.0964 19.2842 66.8995 19.2842Z" fill="currentColor"/>
<path d="M72.2246 11.1885H74.804V9.04736H72.2246V11.1885ZM72.2246 21.091H74.804V12.0917H72.2246V21.091Z" fill="currentColor"/>
<path d="M78.6104 24.7875V20.1875C79.1498 20.9569 79.9253 21.3584 80.8861 21.3584C83.1955 21.3584 84.6958 19.6355 84.6958 16.5744C84.6958 13.6304 83.2293 11.8071 80.8861 11.8071C79.9421 11.8071 79.1667 12.242 78.6104 13.0282V12.0915H76.0312V24.7875H78.6104ZM80.3467 13.8813C81.4424 13.8813 82.0492 14.8348 82.0492 16.5744C82.0492 18.3308 81.4593 19.2842 80.3467 19.2842C79.2173 19.2842 78.6104 18.314 78.6104 16.5744C78.6104 14.8348 79.2004 13.8813 80.3467 13.8813Z" fill="currentColor"/>
<path d="M87.7936 14.5839C87.7936 14.0988 88.2319 13.7642 88.9061 13.7642C89.8164 13.7642 90.3559 14.1489 90.5076 15.0689H93.0699C92.817 12.794 91.165 11.8071 88.9904 11.8071C86.563 11.8071 85.3324 13.2122 85.3324 14.7177C85.3324 18.3308 90.8279 16.7751 90.8279 18.5148C90.8279 19.0668 90.3727 19.418 89.4624 19.418C88.5016 19.418 87.8104 18.9664 87.6924 18.13H85.1133C85.4504 20.3548 87.1024 21.3584 89.395 21.3584C91.755 21.3584 93.407 20.1373 93.407 18.3642C93.407 14.8013 87.7936 16.3569 87.7936 14.5839Z" fill="currentColor"/>
<path d="M99.7621 17.2605C99.7621 18.4147 99.1215 19.2845 98.1269 19.2845C97.2166 19.2845 96.7784 18.7158 96.7784 17.5616V12.0918H94.1992V18.0802C94.1992 20.3216 95.4635 21.3587 97.1829 21.3587C98.2787 21.3587 99.1721 20.8903 99.7621 19.8867V21.0911H102.341V12.0918H99.7621V17.2605Z" fill="currentColor"/>
<path d="M103.586 21.0908H106.165V15.922C106.165 14.7679 106.755 13.8813 107.649 13.8813C108.475 13.8813 108.879 14.4668 108.879 15.6042V21.0908H111.441V15.922C111.441 14.7679 112.048 13.8813 112.942 13.8813C113.768 13.8813 114.155 14.4668 114.155 15.6042V21.0908H116.735V15.0857C116.735 12.8609 115.487 11.8071 113.801 11.8071C112.672 11.8071 111.711 12.2755 111.087 13.2959C110.632 12.2922 109.722 11.8071 108.643 11.8071C107.598 11.8071 106.738 12.2588 106.165 13.2289V12.0915H103.586V21.0908Z" fill="currentColor"/>
<path d="M30.3414 24.7656C33.1353 22.2899 34.8486 18.949 34.8486 15.2728C34.8486 7.64121 27.4654 1.45459 18.3579 1.45459C9.25032 1.45459 1.86719 7.64121 1.86719 15.2728C1.86719 22.9043 9.25032 29.091 18.3579 29.091C20.9416 29.091 23.3866 28.5931 25.5636 27.7054C28.1209 29.2718 31.2541 30.3976 34.7144 30.1602C32.8863 29.6991 31.3139 27.8312 30.3414 24.7656Z" fill="currentColor"/>
<path d="M30.45 15.2726C30.45 20.8959 25.0357 25.4545 18.3568 25.4545C11.678 25.4545 6.26367 20.8959 6.26367 15.2726C6.26367 9.64937 11.678 5.09082 18.3568 5.09082C25.0357 5.09082 30.45 9.64937 30.45 15.2726Z" fill="currentColor"/>
<path d="M26.0534 15.2725C26.0534 18.8875 22.608 21.818 18.3578 21.818C14.1076 21.818 10.6621 18.8875 10.6621 15.2725C10.6621 11.6575 14.1076 8.72705 18.3578 8.72705C22.608 8.72705 26.0534 11.6575 26.0534 15.2725Z" fill="currentColor"/>
</svg>
