<svg width="132" height="32" viewBox="0 0 132 32" fill="none" xmlns="http://www.w3.org/2000/svg">
<g clip-path="url(#clip0_1309_26171)">
<path d="M38.7188 22.5968H48.1096V19.787H42.0565V9.20361H38.7188V22.5968Z" fill="currentColor"/>
<path d="M53.6734 20.7238C52.3345 20.7238 51.6368 19.5625 51.6368 17.8204C51.6368 16.0784 52.3345 14.8983 53.6734 14.8983C55.0122 14.8983 55.7288 16.0784 55.7288 17.8204C55.7288 19.5625 55.0122 20.7238 53.6734 20.7238ZM53.6922 22.8967C56.8037 22.8967 58.8402 20.7051 58.8402 17.8204C58.8402 14.9358 56.8037 12.7441 53.6922 12.7441C50.5997 12.7441 48.5254 14.9358 48.5254 17.8204C48.5254 20.7051 50.5997 22.8967 53.6922 22.8967Z" fill="currentColor"/>
<path d="M64.2244 25.9127C65.6576 25.9127 66.921 25.5943 67.7696 24.845C68.5427 24.1519 69.0519 23.103 69.0519 21.6606V13.0066H66.1102V14.0368H66.0725C65.5067 13.2313 64.6393 12.7256 63.357 12.7256C60.9622 12.7256 59.3027 14.7111 59.3027 17.5209C59.3027 20.4618 61.3205 22.0727 63.489 22.0727C64.6582 22.0727 65.3936 21.6044 65.9593 20.9675H66.0347V21.9229C66.0347 23.0842 65.4879 23.7586 64.1867 23.7586C63.1685 23.7586 62.6593 23.3277 62.4896 22.822H59.5102C59.8119 24.8263 61.5656 25.9127 64.2244 25.9127ZM64.2056 19.8062C63.0553 19.8062 62.301 18.8696 62.301 17.4272C62.301 15.9662 63.0553 15.0296 64.2056 15.0296C65.4879 15.0296 66.1667 16.116 66.1667 17.4085C66.1667 18.7572 65.5445 19.8062 64.2056 19.8062Z" fill="currentColor"/>
<path d="M75.1011 20.7238C73.7623 20.7238 73.0646 19.5625 73.0646 17.8204C73.0646 16.0784 73.7623 14.8983 75.1011 14.8983C76.44 14.8983 77.1566 16.0784 77.1566 17.8204C77.1566 19.5625 76.44 20.7238 75.1011 20.7238ZM75.12 22.8967C78.2314 22.8967 80.2676 20.7051 80.2676 17.8204C80.2676 14.9358 78.2314 12.7441 75.12 12.7441C72.0274 12.7441 69.9531 14.9358 69.9531 17.8204C69.9531 20.7051 72.0274 22.8967 75.12 22.8967Z" fill="currentColor"/>
<path d="M81.166 22.5968H84.2397V13.0061H81.166V22.5968ZM81.166 11.6762H84.2397V9.20361H81.166V11.6762Z" fill="currentColor"/>
<path d="M85.5723 25.7629H88.646V21.6044H88.6837C89.2871 22.4099 90.1734 22.8969 91.418 22.8969C93.9448 22.8969 95.6231 20.9113 95.6231 17.8019C95.6231 14.9172 94.058 12.7256 91.4934 12.7256C90.1734 12.7256 89.2305 13.3063 88.5705 14.1679H88.514V13.0066H85.5723V25.7629ZM90.626 20.5367C89.306 20.5367 88.5517 19.469 88.5517 17.9143C88.5517 16.3595 89.2306 15.1794 90.5694 15.1794C91.8894 15.1794 92.5117 16.2659 92.5117 17.9143C92.5117 19.5439 91.7951 20.5367 90.626 20.5367Z" fill="currentColor"/>
<path d="M100.627 22.8969C103.154 22.8969 105.021 21.8105 105.021 19.7125C105.021 17.2587 103.022 16.8278 101.325 16.5469C100.099 16.3221 99.0054 16.2284 99.0054 15.5541C99.0054 14.9547 99.5899 14.6737 100.344 14.6737C101.193 14.6737 101.777 14.9359 101.89 15.7976H104.719C104.568 13.9057 103.097 12.7256 100.363 12.7256C98.0814 12.7256 96.1956 13.7746 96.1956 15.7976C96.1956 18.0454 97.9871 18.495 99.6654 18.7759C100.948 19.0007 102.117 19.0944 102.117 19.956C102.117 20.5742 101.532 20.9113 100.608 20.9113C99.5899 20.9113 98.9488 20.443 98.8356 19.4877H95.9316C96.0259 21.6044 97.7985 22.8969 100.627 22.8969Z" fill="currentColor"/>
<path d="M109.197 22.878C110.536 22.878 111.384 22.3535 112.082 21.4169H112.139V22.597H115.08V13.0063H112.007V18.3636C112.007 19.5063 111.366 20.293 110.31 20.293C109.329 20.293 108.858 19.7123 108.858 18.6633V13.0063H105.803V19.3002C105.803 21.4356 106.972 22.878 109.197 22.878Z" fill="currentColor"/>
<path d="M116.418 22.5972H119.492V17.2212C119.492 16.0786 120.057 15.2731 121.019 15.2731C121.943 15.2731 122.377 15.8725 122.377 16.9028V22.5972H125.451V17.2212C125.451 16.0786 125.997 15.2731 126.978 15.2731C127.902 15.2731 128.336 15.8725 128.336 16.9028V22.5972H131.409V16.3595C131.409 14.2054 130.316 12.7256 128.128 12.7256C126.884 12.7256 125.847 13.2501 125.092 14.4114H125.055C124.564 13.3812 123.603 12.7256 122.339 12.7256C120.944 12.7256 120.02 13.3812 119.416 14.374H119.36V13.0066H116.418V22.5972Z" fill="currentColor"/>
<path d="M19.9655 1.54274L16.8753 0.720215L14.2712 10.3745L11.9201 1.65855L8.82978 2.48107L11.37 11.898L5.04292 5.61308L2.7807 7.86025L9.7207 14.7541L1.07803 12.4537L0.25 15.5234L9.6932 18.0369C9.58508 17.5737 9.52788 17.091 9.52788 16.5951C9.52788 13.0848 12.3926 10.2391 15.9264 10.2391C19.4603 10.2391 22.325 13.0848 22.325 16.5951C22.325 17.0878 22.2685 17.5675 22.1617 18.028L30.7438 20.3122L31.5718 17.2426L22.0911 14.7191L30.7343 12.4185L29.9062 9.34887L20.4259 11.8722L26.7529 5.58727L24.4907 3.3401L17.647 10.1383L19.9655 1.54274Z" fill="currentColor"/>
<path d="M22.1523 18.064C21.8874 19.1766 21.328 20.1762 20.5605 20.9771L26.7779 27.1531L29.0401 24.906L22.1523 18.064Z" fill="currentColor"/>
<path d="M20.4978 21.0415C19.7211 21.8296 18.7395 22.4177 17.6387 22.7207L19.9011 31.1078L22.9913 30.2853L20.4978 21.0415Z" fill="currentColor"/>
<path d="M17.5238 22.7515C17.0131 22.882 16.4778 22.9513 15.9262 22.9513C15.3351 22.9513 14.7628 22.8717 14.2195 22.7227L11.9551 31.1174L15.0453 31.9399L17.5238 22.7515Z" fill="currentColor"/>
<path d="M14.11 22.6918C13.0261 22.3737 12.0619 21.7781 11.301 20.9878L5.06836 27.179L7.33058 29.4262L14.11 22.6918Z" fill="currentColor"/>
<path d="M11.2479 20.9327C10.5001 20.1374 9.95536 19.1512 9.69608 18.0557L1.08594 20.3474L1.91396 23.4171L11.2479 20.9327Z" fill="currentColor"/>
</g>
<defs>
<clipPath id="clip0_1309_26171">
<rect width="132" height="32" fill="currentColor"/>
</clipPath>
</defs>
</svg>
