<svg width="131" height="32" viewBox="0 0 131 32" fill="none" xmlns="http://www.w3.org/2000/svg">
<g clip-path="url(#clip0_1309_26160)">
<path d="M38.4551 22.4732H47.759V19.6635H41.7619V9.08008H38.4551V22.4732Z" fill="currentColor"/>
<path d="M53.2722 20.5998C51.9458 20.5998 51.2545 19.4385 51.2545 17.6964C51.2545 15.9544 51.9458 14.7743 53.2722 14.7743C54.5987 14.7743 55.3086 15.9544 55.3086 17.6964C55.3086 19.4385 54.5987 20.5998 53.2722 20.5998ZM53.2909 22.7727C56.3735 22.7727 58.3913 20.5811 58.3913 17.6964C58.3913 14.8117 56.3735 12.6201 53.2909 12.6201C50.227 12.6201 48.1719 14.8117 48.1719 17.6964C48.1719 20.5811 50.227 22.7727 53.2909 22.7727Z" fill="currentColor"/>
<path d="M63.7277 25.7887C65.1476 25.7887 66.3993 25.4702 67.2401 24.721C68.0061 24.0279 68.5105 22.9789 68.5105 21.5366V12.8825H65.596V13.9128H65.5586C64.9981 13.1073 64.1388 12.6016 62.8683 12.6016C60.4956 12.6016 58.8516 14.5871 58.8516 17.3969C58.8516 20.3378 60.8506 21.9487 62.9991 21.9487C64.1574 21.9487 64.8861 21.4804 65.4465 20.8435H65.5213V21.7988C65.5213 22.9602 64.9795 23.6345 63.6904 23.6345C62.6815 23.6345 62.1771 23.2037 62.0089 22.698H59.0571C59.356 24.7022 61.0935 25.7887 63.7277 25.7887ZM63.709 19.6821C62.5694 19.6821 61.8221 18.7456 61.8221 17.3032C61.8221 15.8421 62.5694 14.9056 63.709 14.9056C64.9795 14.9056 65.652 15.992 65.652 17.2845C65.652 18.6332 65.0355 19.6821 63.709 19.6821Z" fill="currentColor"/>
<path d="M74.5027 20.5998C73.1762 20.5998 72.485 19.4385 72.485 17.6964C72.485 15.9544 73.1762 14.7743 74.5027 14.7743C75.8292 14.7743 76.5391 15.9544 76.5391 17.6964C76.5391 19.4385 75.8292 20.5998 74.5027 20.5998ZM74.5214 22.7727C77.604 22.7727 79.622 20.5811 79.622 17.6964C79.622 14.8117 77.604 12.6201 74.5214 12.6201C71.4574 12.6201 69.4023 14.8117 69.4023 17.6964C69.4023 20.5811 71.4574 22.7727 74.5214 22.7727Z" fill="currentColor"/>
<path d="M80.5098 22.4732H83.555V12.8826H80.5098V22.4732ZM80.5098 11.5527H83.555V9.08008H80.5098V11.5527Z" fill="currentColor"/>
<path d="M84.877 25.6388H87.9222V21.4804H87.9596C88.5574 22.2859 89.4355 22.7729 90.6686 22.7729C93.172 22.7729 94.8348 20.7873 94.8348 17.6779C94.8348 14.7932 93.2841 12.6016 90.7433 12.6016C89.4355 12.6016 88.5014 13.1822 87.8475 14.0439H87.7914V12.8825H84.877V25.6388ZM89.8839 20.4127C88.5761 20.4127 87.8288 19.345 87.8288 17.7902C87.8288 16.2355 88.5014 15.0554 89.8279 15.0554C91.1356 15.0554 91.7522 16.1419 91.7522 17.7902C91.7522 19.4199 91.0422 20.4127 89.8839 20.4127Z" fill="currentColor"/>
<path d="M99.7926 22.7729C102.296 22.7729 104.146 21.6864 104.146 19.5885C104.146 17.1346 102.165 16.7038 100.484 16.4228C99.2695 16.1981 98.1859 16.1044 98.1859 15.4301C98.1859 14.8306 98.7651 14.5497 99.5124 14.5497C100.353 14.5497 100.932 14.8119 101.044 15.6736H103.847C103.697 13.7817 102.24 12.6016 99.531 12.6016C97.2704 12.6016 95.4022 13.6505 95.4022 15.6736C95.4022 17.9214 97.177 18.3709 98.8398 18.6519C100.11 18.8767 101.269 18.9703 101.269 19.832C101.269 20.4501 100.689 20.7873 99.7739 20.7873C98.7651 20.7873 98.1299 20.319 98.0178 19.3637H95.1406C95.234 21.4804 96.9902 22.7729 99.7926 22.7729Z" fill="currentColor"/>
<path d="M108.283 22.7539C109.609 22.7539 110.45 22.2294 111.141 21.2929H111.197V22.473H114.112V12.8823H111.067V18.2396C111.067 19.3822 110.431 20.169 109.385 20.169C108.414 20.169 107.947 19.5883 107.947 18.5393V12.8823H104.92V19.1762C104.92 21.3116 106.078 22.7539 108.283 22.7539Z" fill="currentColor"/>
<path d="M115.436 22.4732H118.481V17.0972C118.481 15.9545 119.041 15.1491 119.994 15.1491C120.91 15.1491 121.339 15.7485 121.339 16.7787V22.4732H124.385V17.0972C124.385 15.9545 124.926 15.1491 125.898 15.1491C126.813 15.1491 127.243 15.7485 127.243 16.7787V22.4732H130.288V16.2355C130.288 14.0814 129.205 12.6016 127.037 12.6016C125.804 12.6016 124.777 13.1261 124.03 14.2874H123.992C123.506 13.2572 122.554 12.6016 121.302 12.6016C119.919 12.6016 119.004 13.2572 118.406 14.25H118.35V12.8825H115.436V22.4732Z" fill="currentColor"/>
<path fill-rule="evenodd" clip-rule="evenodd" d="M7.3375 3.03709C6.22381 3.81786 5.21674 4.74098 4.34251 5.78014C7.91502 5.4476 12.4538 5.9906 17.7232 8.63226C23.3503 11.4531 27.8814 11.5485 31.0349 10.9386C30.7487 10.07 30.3885 9.23519 29.9618 8.44159C26.3519 8.82333 21.7241 8.31804 16.3307 5.61435C12.9059 3.89743 9.88693 3.19018 7.3375 3.03709ZM27.8531 5.43224C25.0023 2.23876 20.8595 0.229004 16.2485 0.229004C14.8944 0.229004 13.5806 0.402356 12.328 0.72811C14.0244 1.19219 15.8265 1.87114 17.7232 2.82199C21.6719 4.80151 25.081 5.43888 27.8531 5.43224ZM31.7091 13.9875C27.8994 14.7418 22.6386 14.5868 16.3307 11.4246C10.4335 8.46828 5.7399 8.50551 2.57434 9.21084C2.41095 9.24721 2.2514 9.28545 2.0957 9.32526C1.68125 10.229 1.35042 11.1793 1.11305 12.1662C1.36657 12.0983 1.62856 12.0337 1.89885 11.9735C5.73923 11.1178 11.1654 11.155 17.7232 14.4425C23.6205 17.3989 28.3141 17.3616 31.4797 16.6563C31.5881 16.6322 31.695 16.6072 31.8001 16.5815C31.8116 16.3354 31.8174 16.0877 31.8174 15.8387C31.8174 15.2124 31.7806 14.5946 31.7091 13.9875ZM31.2918 19.8757C27.5191 20.537 22.4115 20.2832 16.3307 17.2349C10.4335 14.2785 5.7399 14.3158 2.57434 15.0211C1.87168 15.1776 1.23957 15.3683 0.681968 15.5696C0.680448 15.6591 0.679688 15.7488 0.679688 15.8387C0.679688 24.4598 7.65009 31.4485 16.2485 31.4485C23.4546 31.4485 29.5173 26.5399 31.2918 19.8757Z" fill="currentColor"/>
</g>
<defs>
<clipPath id="clip0_1309_26160">
<rect width="130" height="32" fill="currentColor" transform="translate(0.599609)"/>
</clipPath>
</defs>
</svg>
