<svg width="129" height="32" viewBox="0 0 129 32" fill="none" xmlns="http://www.w3.org/2000/svg">
<g clip-path="url(#clip0_1309_26135)">
<path d="M39.3223 22.3265H48.3747V19.5999H42.5397V9.32959H39.3223V22.3265Z" fill="currentColor"/>
<path d="M53.7379 20.5088C52.4472 20.5088 51.7747 19.3818 51.7747 17.6912C51.7747 16.0007 52.4472 14.8556 53.7379 14.8556C55.0285 14.8556 55.7192 16.0007 55.7192 17.6912C55.7192 19.3818 55.0285 20.5088 53.7379 20.5088ZM53.756 22.6173C56.7553 22.6173 58.7185 20.4906 58.7185 17.6912C58.7185 14.8919 56.7553 12.7651 53.756 12.7651C50.7749 12.7651 48.7754 14.8919 48.7754 17.6912C48.7754 20.4906 50.7749 22.6173 53.756 22.6173Z" fill="currentColor"/>
<path d="M63.9103 25.544C65.2918 25.544 66.5097 25.235 67.3277 24.5079C68.073 23.8354 68.5638 22.8174 68.5638 21.4177V13.0197H65.7281V14.0195H65.6917C65.1464 13.2379 64.3103 12.7471 63.0742 12.7471C60.7656 12.7471 59.166 14.6739 59.166 17.4005C59.166 20.2544 61.111 21.8177 63.2014 21.8177C64.3284 21.8177 65.0374 21.3632 65.5827 20.7452H65.6554V21.6722C65.6554 22.7992 65.1282 23.4536 63.874 23.4536C62.8924 23.4536 62.4016 23.0355 62.238 22.5448H59.366C59.6568 24.4897 61.3473 25.544 63.9103 25.544ZM63.8922 19.6182C62.7833 19.6182 62.0562 18.7093 62.0562 17.3096C62.0562 15.8918 62.7833 14.9829 63.8922 14.9829C65.1282 14.9829 65.7826 16.0372 65.7826 17.2914C65.7826 18.6002 65.1828 19.6182 63.8922 19.6182Z" fill="currentColor"/>
<path d="M74.3941 20.5088C73.1035 20.5088 72.4309 19.3818 72.4309 17.6912C72.4309 16.0007 73.1035 14.8556 74.3941 14.8556C75.6847 14.8556 76.3755 16.0007 76.3755 17.6912C76.3755 19.3818 75.6847 20.5088 74.3941 20.5088ZM74.4123 22.6173C77.4116 22.6173 79.3747 20.4906 79.3747 17.6912C79.3747 14.8919 77.4116 12.7651 74.4123 12.7651C71.4312 12.7651 69.4316 14.8919 69.4316 17.6912C69.4316 20.4906 71.4312 22.6173 74.4123 22.6173Z" fill="currentColor"/>
<path d="M80.2402 22.3265H83.2032V13.0196H80.2402V22.3265ZM80.2402 11.729H83.2032V9.32959H80.2402V11.729Z" fill="currentColor"/>
<path d="M84.4883 25.3986H87.4512V21.3632H87.4876C88.0693 22.1448 88.9236 22.6175 90.1233 22.6175C92.5591 22.6175 94.1769 20.6906 94.1769 17.6732C94.1769 14.8738 92.6682 12.7471 90.196 12.7471C88.9236 12.7471 88.0147 13.3106 87.3785 14.1467H87.324V13.0197H84.4883V25.3986ZM89.3599 20.3271C88.0874 20.3271 87.3603 19.291 87.3603 17.7822C87.3603 16.2735 88.0147 15.1283 89.3053 15.1283C90.5777 15.1283 91.1776 16.1826 91.1776 17.7822C91.1776 19.3637 90.4869 20.3271 89.3599 20.3271Z" fill="currentColor"/>
<path d="M99.0008 22.6175C101.437 22.6175 103.236 21.5632 103.236 19.5273C103.236 17.146 101.309 16.7279 99.6734 16.4553C98.4918 16.2372 97.4375 16.1463 97.4375 15.4919C97.4375 14.9102 98.001 14.6375 98.7281 14.6375C99.5461 14.6375 100.11 14.892 100.219 15.7282H102.945C102.8 13.8923 101.382 12.7471 98.7463 12.7471C96.5468 12.7471 94.7291 13.765 94.7291 15.7282C94.7291 17.9095 96.456 18.3457 98.0738 18.6184C99.3098 18.8365 100.437 18.9274 100.437 19.7636C100.437 20.3634 99.8733 20.6906 98.9826 20.6906C98.001 20.6906 97.383 20.2362 97.2739 19.3092H94.4746C94.5655 21.3632 96.2742 22.6175 99.0008 22.6175Z" fill="currentColor"/>
<path d="M107.26 22.5996C108.551 22.5996 109.369 22.0906 110.041 21.1817H110.096V22.3269H112.932V13.02H109.969V18.2188C109.969 19.3276 109.351 20.0911 108.333 20.0911C107.387 20.0911 106.933 19.5276 106.933 18.5096V13.02H103.988V19.1277C103.988 21.1999 105.115 22.5996 107.26 22.5996Z" fill="currentColor"/>
<path d="M114.221 22.3266H117.184V17.1097C117.184 16.0008 117.729 15.2192 118.656 15.2192C119.547 15.2192 119.965 15.8009 119.965 16.8007V22.3266H122.928V17.1097C122.928 16.0008 123.455 15.2192 124.4 15.2192C125.291 15.2192 125.709 15.8009 125.709 16.8007V22.3266H128.672V16.2735C128.672 14.1831 127.618 12.7471 125.509 12.7471C124.309 12.7471 123.309 13.256 122.582 14.383H122.546C122.073 13.3833 121.146 12.7471 119.928 12.7471C118.583 12.7471 117.693 13.3833 117.111 14.3467H117.056V13.0197H114.221V22.3266Z" fill="currentColor"/>
<path fill-rule="evenodd" clip-rule="evenodd" d="M16.4678 0.823242C24.9974 0.823242 31.9121 7.73787 31.9121 16.2675C31.9121 24.7972 24.9974 31.7119 16.4678 31.7119C7.93808 31.7119 1.02344 24.7972 1.02344 16.2675C1.02344 7.73787 7.93808 0.823242 16.4678 0.823242ZM31.3193 16.2675C31.3193 8.06529 24.67 1.416 16.4678 1.416C15.8061 1.416 15.1547 1.45926 14.5159 1.54311C14.9286 1.50703 15.3462 1.48861 15.7682 1.48861C23.6059 1.48861 29.9597 7.84232 29.9597 15.68C29.9597 23.5176 23.6059 29.8713 15.7682 29.8713C8.34808 29.8713 2.25799 24.1766 1.63024 16.9191C1.97125 24.8191 8.48376 31.1191 16.4678 31.1191C24.67 31.1191 31.3193 24.4698 31.3193 16.2675ZM29.3668 15.68C29.3668 8.16966 23.2786 2.08137 15.7682 2.08137C15.1585 2.08137 14.558 2.12151 13.9694 2.19929C14.3318 2.1688 14.6985 2.15324 15.0688 2.15324C22.2145 2.15324 28.0072 7.946 28.0072 15.0917C28.0072 22.2374 22.2145 28.0301 15.0688 28.0301C8.31234 28.0301 2.76547 22.8513 2.18123 16.2466C2.47828 23.4941 8.44778 29.2786 15.7682 29.2786C23.2786 29.2786 29.3668 23.1903 29.3668 15.68ZM15.0688 2.746C21.8871 2.746 27.4145 8.27335 27.4145 15.0917C27.4145 21.91 21.8871 27.4373 15.0688 27.4373C8.40847 27.4373 2.97992 22.1631 2.73199 15.5634C3.26728 21.5203 8.27313 26.1888 14.3694 26.1888C20.8227 26.1888 26.0541 20.9574 26.0541 14.5041C26.0541 8.05075 20.8227 2.81935 14.3694 2.81935C14.0355 2.81935 13.7049 2.83335 13.3782 2.86079C13.931 2.7851 14.4953 2.746 15.0688 2.746ZM25.4613 14.5041C25.4613 8.37817 20.4953 3.41211 14.3694 3.41211C13.8518 3.41211 13.3425 3.44755 12.8438 3.51616C13.1161 3.49485 13.3913 3.48399 13.6691 3.48399C19.4305 3.48399 24.101 8.15444 24.101 13.9158C24.101 19.6771 19.4305 24.3476 13.6691 24.3476C8.24644 24.3476 3.79014 20.21 3.28503 14.9197C3.50356 20.853 8.38257 25.5961 14.3694 25.5961C20.4953 25.5961 25.4613 20.63 25.4613 14.5041ZM13.6691 4.07675C19.1031 4.07675 23.5082 8.48186 23.5082 13.9158C23.5082 19.3497 19.1031 23.7548 13.6691 23.7548C8.34223 23.7548 4.00406 19.5216 3.83521 14.2357C4.29126 18.8787 8.20684 22.5063 12.9697 22.5063C18.0391 22.5063 22.1486 18.3968 22.1486 13.3275C22.1486 8.25813 18.0391 4.14861 12.9697 4.14861C12.7372 4.14861 12.5067 4.15726 12.2786 4.17424C12.7329 4.10998 13.1971 4.07675 13.6691 4.07675ZM21.5558 13.3275C21.5558 8.58547 17.7116 4.74138 12.9697 4.74138C12.5368 4.74138 12.1115 4.77341 11.6958 4.83523C11.8855 4.82164 12.0771 4.81472 12.2703 4.81472C16.6472 4.81472 20.1955 8.36295 20.1955 12.7399C20.1955 17.1169 16.6472 20.665 12.2703 20.665C8.16881 20.665 4.79506 17.5495 4.38658 13.5559C4.50768 18.1923 8.30411 21.9136 12.9697 21.9136C17.7116 21.9136 21.5558 18.0694 21.5558 13.3275ZM12.2703 5.40748C16.3199 5.40748 19.6026 8.6903 19.6026 12.7399C19.6026 16.7895 16.3199 20.0723 12.2703 20.0723C8.2722 20.0723 5.02152 16.8725 4.93942 12.8941C5.30875 16.2296 8.13683 18.8238 11.5708 18.8238C15.2558 18.8238 18.243 15.8366 18.243 12.1516C18.243 8.46664 15.2558 5.47935 11.5708 5.47935C11.4299 5.47935 11.29 5.48372 11.1512 5.49233C11.5161 5.43646 11.8898 5.40748 12.2703 5.40748ZM17.6503 12.1516C17.6503 8.79398 14.9284 6.07211 11.5708 6.07211C11.2336 6.07211 10.9029 6.09956 10.5806 6.15235C10.6766 6.14729 10.7733 6.14473 10.8706 6.14473C13.8635 6.14473 16.2899 8.57101 16.2899 11.564C16.2899 14.557 13.8635 16.9833 10.8706 16.9833C8.10311 16.9833 5.82015 14.9088 5.49183 12.2301C5.53386 15.5516 8.23942 18.2311 11.5708 18.2311C14.9284 18.2311 17.6503 15.5092 17.6503 12.1516ZM10.8706 6.73748C13.5362 6.73748 15.6971 8.89835 15.6971 11.564C15.6971 14.2297 13.5362 16.3905 10.8706 16.3905C8.20497 16.3905 6.04405 14.2297 6.04405 11.564C6.04405 11.5576 6.04407 11.5512 6.04409 11.5448C6.32162 13.5762 8.0636 15.1413 10.1712 15.1413C12.4718 15.1413 14.3368 13.2763 14.3368 10.9757C14.3368 8.67507 12.4718 6.81011 10.1712 6.81011C10.1191 6.81011 10.0673 6.81105 10.0157 6.81295C10.2932 6.76336 10.5789 6.73748 10.8706 6.73748ZM13.744 10.9757C13.744 9.0025 12.1444 7.40286 10.1712 7.40286C8.19792 7.40286 6.59829 9.0025 6.59829 10.9757C6.59829 12.9489 8.19792 14.5485 10.1712 14.5485C12.1444 14.5485 13.744 12.9489 13.744 10.9757Z" fill="currentColor"/>
</g>
<defs>
<clipPath id="clip0_1309_26135">
<rect width="128" height="31.8107" fill="currentColor" transform="translate(0.800781 0.0947266)"/>
</clipPath>
</defs>
</svg>
