<svg width="121" height="32" viewBox="0 0 121 32" fill="none" xmlns="http://www.w3.org/2000/svg">
<path fill-rule="evenodd" clip-rule="evenodd" d="M13.8795 27.759C21.545 27.759 27.759 21.545 27.759 13.8795C27.759 6.21407 21.545 0 13.8795 0C6.21407 0 0 6.21407 0 13.8795C0 21.545 6.21407 27.759 13.8795 27.759ZM12.5458 11.7505C12.2121 11.638 12.18 11.175 12.4949 11.0167L15.9178 9.29509C17.2683 8.61585 18.1205 7.23331 18.1205 5.72163V4.62651L10.2319 8.59535C7.71287 9.86138 7.96983 13.5655 10.6391 14.4658L15.2132 16.0085C15.5469 16.1211 15.579 16.5841 15.2641 16.7423L11.8412 18.4639C10.4907 19.1432 9.63855 20.5257 9.63855 22.0374V23.1325L17.5271 19.1637C20.0462 17.8977 19.7892 14.1936 17.1199 13.2933L12.5458 11.7505Z" fill="white"/>
<path d="M39.6714 20.4199C38.4123 20.4199 37.2911 20.2138 36.308 19.8017C35.3248 19.3895 34.5314 18.8057 33.9277 18.0501L36.1527 16.1697C36.6702 16.7364 37.2566 17.1485 37.9121 17.4061C38.5675 17.6465 39.2315 17.7667 39.9042 17.7667C40.4389 17.7667 40.8701 17.6465 41.1978 17.4061C41.5255 17.1657 41.6894 16.8308 41.6894 16.4015C41.6894 16.0237 41.5342 15.7232 41.2237 15.5C40.9132 15.2939 40.1716 15.0363 38.9987 14.7272C37.2566 14.2807 36.0234 13.6711 35.299 12.8984C34.6608 12.2115 34.3417 11.3614 34.3417 10.3483C34.3417 9.54116 34.5832 8.8371 35.0661 8.23606C35.5491 7.61786 36.1872 7.13703 36.9807 6.79358C37.7741 6.45014 38.6365 6.27841 39.5679 6.27841C40.6373 6.27841 41.6463 6.46731 42.5949 6.8451C43.5436 7.22289 44.337 7.73807 44.9752 8.39062L43.0606 10.4771C42.5777 10.0306 42.0171 9.66137 41.3789 9.36944C40.758 9.06034 40.1802 8.90579 39.6455 8.90579C38.4036 8.90579 37.7827 9.3351 37.7827 10.1937C37.7999 10.6059 37.9897 10.9321 38.3519 11.1725C38.6968 11.413 39.4816 11.6963 40.7063 12.0226C42.3448 12.4519 43.5005 13.0186 44.1731 13.7226C44.7596 14.3237 45.0528 15.1222 45.0528 16.1182C45.0528 16.9425 44.8113 17.6809 44.3284 18.3334C43.8627 18.986 43.2245 19.5011 42.4138 19.8789C41.6032 20.2396 40.689 20.4199 39.6714 20.4199Z" fill="white"/>
<path d="M68.7268 20.4199C67.2607 20.4199 65.9757 20.1193 64.8719 19.5183C63.768 18.9173 62.9056 18.093 62.2846 17.0455C61.681 15.998 61.3791 14.7959 61.3791 13.4393C61.3791 12.0312 61.6723 10.7947 62.2588 9.73006C62.8625 8.6482 63.6817 7.79817 64.7166 7.17996C65.7688 6.56176 66.9761 6.25265 68.3387 6.25265C69.5634 6.25265 70.6586 6.55317 71.6245 7.15421C72.6077 7.73807 73.3666 8.53658 73.9013 9.54975C74.4532 10.5629 74.7119 11.7221 74.6774 13.0272L74.6516 14.1348H64.8201C65.0099 15.1136 65.4756 15.8864 66.2172 16.453C66.9761 17.0197 67.9334 17.3031 69.089 17.3031C69.71 17.3031 70.2705 17.2086 70.7707 17.0197C71.2882 16.8308 71.8401 16.496 72.4266 16.0152L74.1341 18.3849C73.3925 19.0375 72.5387 19.5441 71.5728 19.9047C70.6241 20.2481 69.6755 20.4199 68.7268 20.4199ZM68.3646 9.29217C66.4156 9.29217 65.2427 10.168 64.846 11.9195H71.3141V11.8165C71.2623 11.0781 70.9518 10.4771 70.3827 10.0134C69.8307 9.53258 69.158 9.29217 68.3646 9.29217Z" fill="white"/>
<path d="M82.8256 20.4199C81.532 20.4199 80.3677 20.1108 79.3328 19.4926C78.3152 18.8744 77.5045 18.0329 76.9008 16.9682C76.3144 15.9035 76.0212 14.6929 76.0212 13.3363C76.0212 11.9968 76.3144 10.7947 76.9008 9.73006C77.5045 8.66537 78.3152 7.82393 79.3328 7.20572C80.3677 6.58752 81.532 6.27841 82.8256 6.27841C84.0502 6.27841 85.1627 6.50165 86.1631 6.94814C87.1807 7.39462 87.9741 8.02141 88.5433 8.82851L86.6029 11.1468C86.2407 10.6488 85.7405 10.2281 85.1023 9.88461C84.4641 9.52399 83.8173 9.34368 83.1619 9.34368C82.4375 9.34368 81.7907 9.52399 81.2215 9.88461C80.6696 10.2281 80.2297 10.7003 79.902 11.3013C79.5915 11.9024 79.4363 12.5807 79.4363 13.3363C79.4363 14.0918 79.6002 14.7702 79.9279 15.3712C80.2556 15.9722 80.7041 16.453 81.2732 16.8137C81.8424 17.1571 82.4806 17.3288 83.1878 17.3288C83.8605 17.3288 84.4814 17.1829 85.0506 16.8909C85.6198 16.5818 86.1372 16.1525 86.6029 15.603L88.5433 17.9213C87.9569 18.6769 87.1462 19.2865 86.1113 19.7501C85.0765 20.1966 83.9812 20.4199 82.8256 20.4199Z" fill="white"/>
<path d="M96.3856 20.1623C92.9734 20.1623 90.2073 17.3962 90.2073 13.984V9.73006V6.56176V4.62218L93.7259 3.08435V6.56176H96.3856V9.73006H93.7259V14.9639C93.7259 16.0684 94.6213 16.9639 95.7259 16.9639H96.3856V20.1623Z" fill="white"/>
<path d="M98.0647 20.1623V6.56176H101.094L101.532 8.80275C101.98 8.06434 102.566 7.46331 103.291 6.99965C104.033 6.51883 104.809 6.27841 105.619 6.27841C105.93 6.27841 106.214 6.30417 106.473 6.35569C106.749 6.39003 106.982 6.44155 107.172 6.51024L106.214 10.374C106.025 10.271 105.783 10.1851 105.49 10.1164C105.197 10.0478 104.904 10.0134 104.61 10.0134C103.765 10.0134 103.049 10.3053 102.463 10.8892C101.894 11.4559 101.609 12.1771 101.609 13.0529V20.1623H98.0647Z" fill="white"/>
<path d="M46.8434 24.6747V6.608H50.0871L50.506 8.0964C51.5784 7.02847 52.8503 6.36146 54.3885 6.36146C55.3277 6.36146 56.1395 6.55869 56.824 6.95315C57.5243 7.33117 58.1053 7.8489 58.567 8.50633C59.0286 9.14733 59.3708 9.87051 59.5937 10.6759C59.8324 11.4812 59.9518 12.303 59.9518 13.1412C59.9518 13.9795 59.8324 14.8012 59.5937 15.6066C59.3708 16.412 59.0286 17.1433 58.567 17.8008C58.1053 18.4418 57.5243 18.9595 56.824 19.354C56.1395 19.732 55.3277 19.921 54.3885 19.921C53.2045 19.921 51.277 19.4779 50.506 18.506V23.1325L46.8434 24.6747ZM50.4011 13.1412C50.4011 13.7494 50.5045 14.341 50.7115 14.9163C50.9343 15.4916 51.2606 15.9682 51.6904 16.3462C52.1361 16.7078 52.6853 16.8886 53.3379 16.8886C53.9906 16.8886 54.5318 16.7078 54.9616 16.3462C55.4073 15.9682 55.7336 15.4916 55.9405 14.9163C56.1634 14.341 56.2748 13.7494 56.2748 13.1412C56.2748 12.5331 56.1634 11.9414 55.9405 11.3662C55.7336 10.7909 55.4073 10.3225 54.9616 9.9609C54.5318 9.58288 53.9906 9.39387 53.3379 9.39387C52.6853 9.39387 52.1361 9.58288 51.6904 9.9609C51.2606 10.3225 50.9343 10.7909 50.7115 11.3662C50.5045 11.9414 50.4011 12.5331 50.4011 13.1412Z" fill="white"/>
<path fill-rule="evenodd" clip-rule="evenodd" d="M116.627 18.7273C115.629 19.7215 114.354 20.3181 112.964 20.3181C109.77 20.3181 107.181 17.1679 107.181 13.2819C107.181 9.39597 109.77 6.24578 112.964 6.24578C114.354 6.24578 115.629 6.84235 116.627 7.83652V6.55423H120.289V20.1253H117.012L116.627 18.7373V18.7273ZM116.627 11.8143C116.172 10.2534 114.962 9.13734 113.542 9.13734C111.732 9.13734 110.265 10.9498 110.265 13.1855C110.265 15.4213 111.732 17.2337 113.542 17.2337C114.962 17.2337 116.172 16.1177 116.627 14.5567C116.751 14.1285 116.819 13.6668 116.819 13.1855C116.819 12.7314 116.759 12.2947 116.647 11.8872C116.64 11.8628 116.634 11.8385 116.627 11.8143Z" fill="white"/>
<path d="M95.6143 27.7468C95.6143 27.1699 95.7092 26.6257 95.8989 26.1141C96.0887 25.5971 96.3523 25.1481 96.6898 24.7671C97.0324 24.3807 97.4568 24.0759 97.9629 23.8528C98.4691 23.6296 99.0253 23.5181 99.6315 23.5181C100.443 23.5181 101.158 23.7113 101.775 24.0977C102.397 24.4841 102.866 24.9957 103.182 25.6324C103.504 26.2637 103.665 26.9685 103.665 27.7468C103.665 28.5305 103.504 29.2434 103.182 29.8856C102.866 30.5224 102.397 31.034 101.775 31.4204C101.158 31.8068 100.443 32 99.6315 32C99.0253 32 98.4691 31.8884 97.9629 31.6653C97.4568 31.4367 97.0324 31.1319 96.6898 30.751C96.3523 30.3646 96.0887 29.9128 95.8989 29.3958C95.7092 28.8788 95.6143 28.3291 95.6143 27.7468ZM97.3778 27.7468C97.3778 28.4978 97.5807 29.1346 97.9867 29.6571C98.3926 30.1795 98.9409 30.4408 99.6315 30.4408C100.333 30.4408 100.884 30.1822 101.284 29.6652C101.69 29.1428 101.893 28.5033 101.893 27.7468C101.893 27.0012 101.69 26.3699 101.284 25.8528C100.884 25.3358 100.333 25.0773 99.6315 25.0773C98.9409 25.0773 98.3926 25.3358 97.9867 25.8528C97.5807 26.3699 97.3778 27.0012 97.3778 27.7468Z" fill="white"/>
<path d="M104.571 31.7959V23.7222H106.271V24.8242C106.566 24.465 106.957 24.1575 107.442 23.9018C107.927 23.646 108.454 23.5181 109.023 23.5181C109.856 23.5181 110.486 23.7412 110.913 24.1875C111.34 24.6338 111.554 25.276 111.554 26.1141V31.7959H109.853V26.7508C109.853 26.1522 109.716 25.7249 109.442 25.4692C109.173 25.2079 108.786 25.0773 108.28 25.0773C107.869 25.0773 107.484 25.1834 107.125 25.3957C106.767 25.6025 106.482 25.8583 106.271 26.1631V31.7959H104.571Z" fill="white"/>
<path d="M112.468 27.7468C112.468 26.974 112.634 26.2665 112.966 25.6243C113.304 24.9766 113.778 24.465 114.39 24.0895C115.001 23.7085 115.684 23.5181 116.438 23.5181C117.598 23.5181 118.528 23.9317 119.229 24.7589C119.936 25.5807 120.289 26.6338 120.289 27.9182V28.3346H114.247C114.316 28.9713 114.569 29.5019 115.006 29.9265C115.449 30.3455 116.027 30.555 116.738 30.555C117.134 30.555 117.534 30.4789 117.94 30.3265C118.351 30.1686 118.692 29.9509 118.96 29.6734L119.735 30.8244C119.351 31.2054 118.884 31.4966 118.336 31.6979C117.787 31.8993 117.197 32 116.564 32C115.378 32 114.397 31.6081 113.622 30.8244C112.853 30.0353 112.468 29.0094 112.468 27.7468ZM114.231 27.1019H118.636C118.626 26.8515 118.576 26.6066 118.486 26.3671C118.402 26.1222 118.275 25.8909 118.106 25.6732C117.938 25.4555 117.708 25.2814 117.418 25.1508C117.134 25.0202 116.807 24.9549 116.438 24.9549C116.09 24.9549 115.773 25.0202 115.489 25.1508C115.209 25.276 114.983 25.4474 114.809 25.6651C114.64 25.8773 114.506 26.1059 114.405 26.3508C114.31 26.5903 114.252 26.8406 114.231 27.1019Z" fill="white"/>
</svg>
