<svg width="121" height="32" viewBox="0 0 121 32" fill="none" xmlns="http://www.w3.org/2000/svg">
<path fill-rule="evenodd" clip-rule="evenodd" d="M13.8795 27.759C21.545 27.759 27.759 21.545 27.759 13.8795C27.759 6.21407 21.545 0 13.8795 0C6.21407 0 0 6.21407 0 13.8795C0 21.545 6.21407 27.759 13.8795 27.759ZM12.5458 11.7505C12.2121 11.638 12.18 11.175 12.4949 11.0167L15.9178 9.29509C17.2683 8.61585 18.1205 7.23331 18.1205 5.72163V4.62651L10.2319 8.59535C7.71287 9.86138 7.96983 13.5655 10.6391 14.4658L15.2132 16.0085C15.5469 16.1211 15.579 16.5841 15.2641 16.7423L11.8412 18.4639C10.4907 19.1432 9.63855 20.5257 9.63855 22.0374V23.1325L17.5271 19.1637C20.0462 17.8977 19.7892 14.1936 17.1199 13.2933L12.5458 11.7505Z" fill="currentColor"/>
<path d="M39.6714 20.4195C38.4123 20.4195 37.2911 20.2134 36.308 19.8013C35.3248 19.3892 34.5314 18.8053 33.9277 18.0497L36.1527 16.1693C36.6702 16.736 37.2566 17.1482 37.9121 17.4057C38.5675 17.6462 39.2315 17.7664 39.9042 17.7664C40.4389 17.7664 40.8701 17.6462 41.1978 17.4057C41.5255 17.1653 41.6894 16.8305 41.6894 16.4012C41.6894 16.0234 41.5342 15.7229 41.2237 15.4996C40.9132 15.2935 40.1716 15.036 38.9987 14.7269C37.2566 14.2804 36.0234 13.6708 35.299 12.898C34.6608 12.2111 34.3417 11.3611 34.3417 10.3479C34.3417 9.5408 34.5832 8.83673 35.0661 8.2357C35.5491 7.61749 36.1872 7.13667 36.9807 6.79322C37.7741 6.44977 38.6365 6.27805 39.5679 6.27805C40.6373 6.27805 41.6463 6.46694 42.5949 6.84474C43.5436 7.22253 44.337 7.7377 44.9752 8.39025L43.0606 10.4767C42.5777 10.0302 42.0171 9.66101 41.3789 9.36907C40.758 9.05997 40.1802 8.90542 39.6455 8.90542C38.4036 8.90542 37.7827 9.33473 37.7827 10.1933C37.7999 10.6055 37.9897 10.9318 38.3519 11.1722C38.6968 11.4126 39.4816 11.6959 40.7063 12.0222C42.3448 12.4515 43.5005 13.0182 44.1731 13.7223C44.7596 14.3233 45.0528 15.1218 45.0528 16.1178C45.0528 16.9421 44.8113 17.6805 44.3284 18.3331C43.8627 18.9856 43.2245 19.5008 42.4138 19.8786C41.6032 20.2392 40.689 20.4195 39.6714 20.4195Z" fill="currentColor"/>
<path d="M68.7268 20.4195C67.2607 20.4195 65.9757 20.119 64.8719 19.518C63.768 18.9169 62.9056 18.0926 62.2846 17.0451C61.681 15.9976 61.3791 14.7955 61.3791 13.4389C61.3791 12.0308 61.6723 10.7944 62.2588 9.72969C62.8625 8.64784 63.6817 7.7978 64.7166 7.1796C65.7688 6.56139 66.9761 6.25229 68.3387 6.25229C69.5634 6.25229 70.6586 6.55281 71.6245 7.15384C72.6077 7.7377 73.3666 8.53621 73.9013 9.54938C74.4532 10.5626 74.7119 11.7217 74.6774 13.0268L74.6516 14.1344H64.8201C65.0099 15.1132 65.4756 15.886 66.2172 16.4527C66.9761 17.0194 67.9334 17.3027 69.089 17.3027C69.71 17.3027 70.2705 17.2083 70.7707 17.0194C71.2882 16.8305 71.8401 16.4956 72.4266 16.0148L74.1341 18.3846C73.3925 19.0371 72.5387 19.5437 71.5728 19.9043C70.6241 20.2478 69.6755 20.4195 68.7268 20.4195ZM68.3646 9.2918C66.4156 9.2918 65.2427 10.1676 64.846 11.9192H71.3141V11.8161C71.2623 11.0777 70.9518 10.4767 70.3827 10.013C69.8307 9.53221 69.158 9.2918 68.3646 9.2918Z" fill="currentColor"/>
<path d="M82.8256 20.4195C81.532 20.4195 80.3677 20.1104 79.3328 19.4922C78.3152 18.874 77.5045 18.0325 76.9008 16.9679C76.3144 15.9032 76.0212 14.6925 76.0212 13.3359C76.0212 11.9964 76.3144 10.7944 76.9008 9.72969C77.5045 8.66501 78.3152 7.82356 79.3328 7.20536C80.3677 6.58715 81.532 6.27805 82.8256 6.27805C84.0502 6.27805 85.1627 6.50129 86.1631 6.94777C87.1807 7.39425 87.9741 8.02104 88.5433 8.82814L86.6029 11.1464C86.2407 10.6484 85.7405 10.2277 85.1023 9.88425C84.4641 9.52363 83.8173 9.34332 83.1619 9.34332C82.4375 9.34332 81.7907 9.52363 81.2215 9.88425C80.6696 10.2277 80.2297 10.6999 79.902 11.301C79.5915 11.902 79.4363 12.5803 79.4363 13.3359C79.4363 14.0915 79.6002 14.7698 79.9279 15.3708C80.2556 15.9719 80.7041 16.4527 81.2732 16.8133C81.8424 17.1567 82.4806 17.3285 83.1878 17.3285C83.8605 17.3285 84.4814 17.1825 85.0506 16.8906C85.6198 16.5815 86.1372 16.1522 86.6029 15.6026L88.5433 17.9209C87.9569 18.6765 87.1462 19.2861 86.1113 19.7498C85.0765 20.1963 83.9812 20.4195 82.8256 20.4195Z" fill="currentColor"/>
<path d="M96.3856 20.1619C92.9734 20.1619 90.2073 17.3958 90.2073 13.9836V9.72969V6.56139V4.62181L93.7259 3.08398V6.56139H96.3856V9.72969H93.7259V14.9635C93.7259 16.0681 94.6213 16.9635 95.7259 16.9635H96.3856V20.1619Z" fill="currentColor"/>
<path d="M98.0647 20.1619V6.56139H101.094L101.532 8.80239C101.98 8.06397 102.566 7.46294 103.291 6.99929C104.033 6.51846 104.809 6.27805 105.619 6.27805C105.93 6.27805 106.214 6.30381 106.473 6.35532C106.749 6.38967 106.982 6.44118 107.172 6.50987L106.214 10.3737C106.025 10.2706 105.783 10.1848 105.49 10.1161C105.197 10.0474 104.904 10.013 104.61 10.013C103.765 10.013 103.049 10.305 102.463 10.8888C101.894 11.4555 101.609 12.1768 101.609 13.0526V20.1619H98.0647Z" fill="currentColor"/>
<path d="M46.8434 24.6743V6.60763H50.0871L50.506 8.09603C51.5784 7.0281 52.8503 6.36109 54.3885 6.36109C55.3277 6.36109 56.1395 6.55832 56.824 6.95278C57.5243 7.33081 58.1053 7.84853 58.567 8.50597C59.0286 9.14696 59.3708 9.87014 59.5937 10.6755C59.8324 11.4808 59.9518 12.3026 59.9518 13.1409C59.9518 13.9791 59.8324 14.8009 59.5937 15.6062C59.3708 16.4116 59.0286 17.143 58.567 17.8004C58.1053 18.4414 57.5243 18.9591 56.824 19.3536C56.1395 19.7316 55.3277 19.9206 54.3885 19.9206C53.2045 19.9206 51.277 19.4775 50.506 18.5057V23.1322L46.8434 24.6743ZM50.4011 13.1409C50.4011 13.749 50.5045 14.3407 50.7115 14.9159C50.9343 15.4912 51.2606 15.9678 51.6904 16.3458C52.1361 16.7074 52.6853 16.8882 53.3379 16.8882C53.9906 16.8882 54.5318 16.7074 54.9616 16.3458C55.4073 15.9678 55.7336 15.4912 55.9405 14.9159C56.1634 14.3407 56.2748 13.749 56.2748 13.1409C56.2748 12.5327 56.1634 11.9411 55.9405 11.3658C55.7336 10.7905 55.4073 10.3221 54.9616 9.96054C54.5318 9.58251 53.9906 9.3935 53.3379 9.3935C52.6853 9.3935 52.1361 9.58251 51.6904 9.96054C51.2606 10.3221 50.9343 10.7905 50.7115 11.3658C50.5045 11.9411 50.4011 12.5327 50.4011 13.1409Z" fill="currentColor"/>
<path fill-rule="evenodd" clip-rule="evenodd" d="M116.627 18.727C115.629 19.7211 114.354 20.3177 112.964 20.3177C109.77 20.3177 107.181 17.1675 107.181 13.2816C107.181 9.3956 109.77 6.24541 112.964 6.24541C114.354 6.24541 115.629 6.84199 116.627 7.83616V6.55386H120.289V20.1249H117.012L116.627 18.737V18.727ZM116.627 11.814C116.172 10.2531 114.962 9.13698 113.542 9.13698C111.732 9.13698 110.265 10.9494 110.265 13.1852C110.265 15.4209 111.732 17.2334 113.542 17.2334C114.962 17.2334 116.172 16.1173 116.627 14.5564C116.751 14.1282 116.819 13.6665 116.819 13.1852C116.819 12.731 116.759 12.2944 116.647 11.8868C116.64 11.8624 116.634 11.8381 116.627 11.814Z" fill="currentColor"/>
<path d="M95.6143 27.7463C95.6143 27.1694 95.7092 26.6252 95.8989 26.1136C96.0887 25.5966 96.3523 25.1476 96.6898 24.7666C97.0324 24.3802 97.4568 24.0754 97.9629 23.8523C98.4691 23.6291 99.0253 23.5176 99.6315 23.5176C100.443 23.5176 101.158 23.7108 101.775 24.0972C102.397 24.4836 102.866 24.9952 103.182 25.6319C103.504 26.2633 103.665 26.968 103.665 27.7463C103.665 28.53 103.504 29.2429 103.182 29.8851C102.866 30.5219 102.397 31.0335 101.775 31.4199C101.158 31.8063 100.443 31.9995 99.6315 31.9995C99.0253 31.9995 98.4691 31.8879 97.9629 31.6648C97.4568 31.4362 97.0324 31.1314 96.6898 30.7505C96.3523 30.3641 96.0887 29.9124 95.8989 29.3953C95.7092 28.8783 95.6143 28.3286 95.6143 27.7463ZM97.3778 27.7463C97.3778 28.4973 97.5807 29.1341 97.9867 29.6566C98.3926 30.179 98.9409 30.4403 99.6315 30.4403C100.333 30.4403 100.884 30.1818 101.284 29.6647C101.69 29.1423 101.893 28.5028 101.893 27.7463C101.893 27.0007 101.69 26.3694 101.284 25.8524C100.884 25.3353 100.333 25.0768 99.6315 25.0768C98.9409 25.0768 98.3926 25.3353 97.9867 25.8524C97.5807 26.3694 97.3778 27.0007 97.3778 27.7463Z" fill="currentColor"/>
<path d="M104.571 31.7954V23.7217H106.271V24.8237C106.566 24.4645 106.957 24.1571 107.442 23.9013C107.927 23.6455 108.454 23.5176 109.023 23.5176C109.856 23.5176 110.486 23.7407 110.913 24.187C111.34 24.6333 111.554 25.2755 111.554 26.1136V31.7954H109.853V26.7503C109.853 26.1517 109.716 25.7245 109.442 25.4687C109.173 25.2074 108.786 25.0768 108.28 25.0768C107.869 25.0768 107.484 25.1829 107.125 25.3952C106.767 25.602 106.482 25.8578 106.271 26.1626V31.7954H104.571Z" fill="currentColor"/>
<path d="M112.468 27.7463C112.468 26.9735 112.634 26.266 112.966 25.6238C113.304 24.9761 113.778 24.4645 114.39 24.089C115.001 23.7081 115.684 23.5176 116.438 23.5176C117.598 23.5176 118.528 23.9312 119.229 24.7584C119.936 25.5802 120.289 26.6333 120.289 27.9177V28.3341H114.247C114.316 28.9708 114.569 29.5015 115.006 29.926C115.449 30.345 116.027 30.5546 116.738 30.5546C117.134 30.5546 117.534 30.4784 117.94 30.326C118.351 30.1681 118.692 29.9505 118.96 29.6729L119.735 30.824C119.351 31.2049 118.884 31.4961 118.336 31.6975C117.787 31.8988 117.197 31.9995 116.564 31.9995C115.378 31.9995 114.397 31.6077 113.622 30.824C112.853 30.0348 112.468 29.0089 112.468 27.7463ZM114.231 27.1014H118.636C118.626 26.851 118.576 26.6061 118.486 26.3667C118.402 26.1218 118.275 25.8905 118.106 25.6728C117.938 25.4551 117.708 25.2809 117.418 25.1503C117.134 25.0197 116.807 24.9544 116.438 24.9544C116.09 24.9544 115.773 25.0197 115.489 25.1503C115.209 25.2755 114.983 25.4469 114.809 25.6646C114.64 25.8768 114.506 26.1054 114.405 26.3503C114.31 26.5898 114.252 26.8401 114.231 27.1014Z" fill="currentColor"/>
</svg>
