<svg width="528" height="408" viewBox="0 0 528 408" fill="none" xmlns="http://www.w3.org/2000/svg">
<g clip-path="url(#clip0_3419_85084)">
<rect width="528" height="408" fill="white"/>
<rect width="528" height="408" fill="url(#paint0_linear_3419_85084)"/>
<rect x="237.453" y="273.001" width="313" height="138" fill="url(#paint1_linear_3419_85084)"/>
<path fill-rule="evenodd" clip-rule="evenodd" d="M95.1719 440.255C299.613 424.165 582.897 293.569 727.905 148.561C872.914 3.55267 824.734 -100.956 620.294 -84.8666C415.853 -68.7768 132.569 61.8191 -12.4397 206.827C-157.448 351.836 -109.269 456.345 95.1719 440.255ZM362.39 140.231C355.62 138.802 363.522 130.111 374.914 126.456L575.497 62.0788C577.323 61.4925 579.15 60.4481 580.219 59.3792L645.835 -6.23599L360.363 85.4015C269.23 114.638 206.013 184.17 260.173 195.598L352.982 215.182C359.752 216.61 351.849 225.302 340.458 228.956L139.875 293.334C138.048 293.92 136.221 294.965 135.152 296.034L69.537 361.649L355.008 270.011C446.141 240.774 509.359 171.243 455.199 159.815L362.39 140.231Z" fill="#6431F6"/>
<g filter="url(#filter0_i_3419_85084)">
<path fill-rule="evenodd" clip-rule="evenodd" d="M374.913 126.457C363.521 130.112 355.619 138.803 362.389 140.232L455.198 159.815C509.358 171.244 446.14 240.775 355.007 270.012L69.5361 361.649L135.151 296.034C136.22 294.965 138.047 293.921 139.874 293.335L340.457 228.957C351.849 225.302 359.751 216.611 352.981 215.182L260.172 195.599C206.012 184.171 269.23 114.639 360.363 85.4022L645.834 -6.2353L580.219 59.3799C579.15 60.4488 577.323 61.4932 575.496 62.0795L374.913 126.457Z" fill="url(#paint2_linear_3419_85084)"/>
</g>
</g>
<defs>
<filter id="filter0_i_3419_85084" x="69.5352" y="-6.23535" width="576.297" height="371.885" filterUnits="userSpaceOnUse" color-interpolation-filters="sRGB">
<feFlood flood-opacity="0" result="BackgroundImageFix"/>
<feBlend mode="normal" in="SourceGraphic" in2="BackgroundImageFix" result="shape"/>
<feColorMatrix in="SourceAlpha" type="matrix" values="0 0 0 0 0 0 0 0 0 0 0 0 0 0 0 0 0 0 127 0" result="hardAlpha"/>
<feOffset dy="4"/>
<feGaussianBlur stdDeviation="2"/>
<feComposite in2="hardAlpha" operator="arithmetic" k2="-1" k3="1"/>
<feColorMatrix type="matrix" values="0 0 0 0 0 0 0 0 0 0 0 0 0 0 0 0 0 0 0.25 0"/>
<feBlend mode="normal" in2="shape" result="effect1_innerShadow_3419_85084"/>
</filter>
<linearGradient id="paint0_linear_3419_85084" x1="538.633" y1="408" x2="-66.9159" y2="170.907" gradientUnits="userSpaceOnUse">
<stop stop-color="#6537E8"/>
<stop offset="1" stop-color="#A995FA"/>
</linearGradient>
<linearGradient id="paint1_linear_3419_85084" x1="393.953" y1="273.001" x2="393.953" y2="411.001" gradientUnits="userSpaceOnUse">
<stop stop-color="#6431F6"/>
<stop offset="1" stop-color="#3712A1"/>
</linearGradient>
<linearGradient id="paint2_linear_3419_85084" x1="532.726" y1="2.66651" x2="557.953" y2="323.21" gradientUnits="userSpaceOnUse">
<stop stop-color="#6431F6"/>
<stop offset="1" stop-color="#3712A1"/>
</linearGradient>
<clipPath id="clip0_3419_85084">
<rect width="528" height="408" fill="white"/>
</clipPath>
</defs>
</svg>
