<svg width="84" height="66" viewBox="0 0 84 66" fill="none" xmlns="http://www.w3.org/2000/svg">
<path d="M77 0H7C5.14348 0 3.36301 0.737498 2.05025 2.05025C0.737498 3.36301 0 5.14349 0 7L0 58.3333C0 60.1898 0.737498 61.9703 2.05025 63.2831C3.36301 64.5958 5.14348 65.3333 7 65.3333H77C78.8565 65.3333 80.637 64.5958 81.9497 63.2831C83.2625 61.9703 84 60.1898 84 58.3333V7C84 5.14349 83.2625 3.36301 81.9497 2.05025C80.637 0.737498 78.8565 0 77 0Z" fill="#3F454F"/>
<path d="M8.78515 46.1178L9.84581 47.1785L8.78515 46.1178C8.17566 46.7273 7.83325 47.5539 7.83325 48.4159V54.2492C7.83325 55.1112 8.17566 55.9378 8.78515 56.5473C9.39465 57.1568 10.2213 57.4992 11.0833 57.4992H21.5833C22.4452 57.4992 23.2719 57.1568 23.8813 56.5473C24.4908 55.9378 24.8333 55.1112 24.8333 54.2492V48.4159C24.8333 47.5539 24.4908 46.7273 23.8813 46.1178C23.2719 45.5083 22.4452 45.1659 21.5833 45.1659H11.0833C10.2213 45.1659 9.39465 45.5083 8.78515 46.1178ZM54.7052 45.1659H34.8719C34.0099 45.1659 33.1833 45.5083 32.5738 46.1178C31.9643 46.7273 31.6219 47.5539 31.6219 48.4159V54.2492C31.6219 55.1112 31.9643 55.9378 32.5738 56.5473C33.1833 57.1568 34.0099 57.4992 34.8719 57.4992H54.7052C55.5671 57.4992 56.3938 57.1568 57.0033 56.5473C57.6128 55.9378 57.9552 55.1112 57.9552 54.2492V48.4159C57.9552 47.5539 57.6128 46.7273 57.0033 46.1178C56.3938 45.5083 55.5671 45.1659 54.7052 45.1659Z" fill="url(#paint0_linear_3509_1260)" stroke="white" stroke-width="3"/>
<defs>
<linearGradient id="paint0_linear_3509_1260" x1="56.4552" y1="46.6659" x2="9.33325" y2="46.6659" gradientUnits="userSpaceOnUse">
<stop stop-color="#762B8A"/>
<stop offset="1" stop-color="#A61F8C"/>
</linearGradient>
</defs>
</svg>
